<?xml version="1.0" standalone="no"?><!DOCTYPE svg PUBLIC "-//W3C//DTD SVG 1.1//EN" "http://www.w3.org/Graphics/SVG/1.1/DTD/svg11.dtd"><svg t="1709988290889" class="icon" viewBox="0 0 1024 1024" version="1.1" xmlns="http://www.w3.org/2000/svg" p-id="4303" xmlns:xlink="http://www.w3.org/1999/xlink" width="200" height="200"><path d="M82.51392 463.84128c0 222.23872 180.16256 402.40128 402.40128 402.40128 222.24896 0 402.41152-180.16256 402.41152-402.40128C887.32672 241.60256 707.16416 61.44 484.9152 61.44 262.67648 61.44 82.51392 241.60256 82.51392 463.84128z" fill="#B5F5EC" p-id="4304"></path><path d="M211.9168 463.84128a272.9984 272.9984 0 1 0 545.9968 0c0-150.77376-122.2144-272.9984-272.9984-272.9984-150.77376 0-272.9984 122.22464-272.9984 272.9984z" fill="#36CFC9" p-id="4305"></path><path d="M340.992 391.8848a71.96672 71.96672 0 1 0 143.93344 0 71.96672 71.96672 0 0 0-143.9232 0z" fill="#B5F5EC" p-id="4306"></path><path d="M259.03104 858.17344h-32.26624l-32.27648 103.2704h580.85376l-32.256-103.2704h-32.27648a419.50208 419.50208 0 0 1-451.77856 0z" fill="#08979C" p-id="4307"></path></svg>